<svg width="156" height="49" viewBox="0 0 156 49" fill="none" xmlns="http://www.w3.org/2000/svg">
<path d="M16.8993 1.84766V5.39517H13.3572V1.84766H16.8993ZM23.9097 19.4374V15.8899H20.3676V19.4374H16.8255V22.911H13.2834V19.3635H16.8255V15.816H20.3676V5.39517H16.8255V8.86877H13.2834V12.4163H9.7413V15.9638H6.34679V19.5113H2.80469V26.5324H6.34679V30.0799H23.9097V26.5324H27.4518V19.5113L23.9097 19.4374Z" fill="url(#paint0_radial_1223_23173)"/>
<path d="M6.34766 30.0059V33.4795H9.88976V37.027H13.4319V47.5217H16.9002V37.027H20.4423V33.4795H23.9106V30.0059H6.34766Z" fill="url(#paint1_linear_1223_23173)"/>
<path d="M23.9106 29.4883H6.34766V30.0056H23.9106V29.4883Z" fill="#ED1C24"/>
<path d="M61.3228 39.6875C59.0352 39.6875 57.6331 39.0963 55.4193 37.5442C53.2793 38.9485 50.6965 39.6136 48.1137 39.6136C40.2178 39.5397 33.9453 33.4794 33.9453 25.9409C33.9453 18.4025 40.0702 12.3421 47.5234 12.3421C47.671 12.3421 47.7447 12.3421 47.8923 12.3421C55.2717 12.1204 61.5442 17.8851 61.7656 25.3497C61.7656 25.5714 61.7656 25.867 61.7656 26.0887C61.9131 29.1928 60.7324 32.223 58.5924 34.5141C59.3304 35.0314 60.1421 35.2531 61.0276 35.327C61.3966 35.327 61.8394 35.2531 62.2083 35.2531V39.6875C61.9869 39.6875 61.4704 39.6875 61.3228 39.6875ZM47.8185 17.0721C42.9482 16.9243 38.8895 20.7675 38.8157 25.6453C38.8157 25.7931 38.8157 25.867 38.8157 26.0148C38.8157 26.4583 38.8157 26.8278 38.8895 27.2712C40.2178 26.9017 41.5461 26.7539 42.9482 26.8278C47.3758 26.9756 51.6558 28.7494 54.8289 31.9273C56.3048 30.3753 57.1165 28.3798 56.969 26.2365C57.1165 21.3587 53.2793 17.2939 48.4089 17.146C48.1875 17.0721 48.0399 17.0721 47.8185 17.0721ZM42.8744 30.7448C42.0626 30.7448 41.1771 30.8187 40.3654 31.0405C42.1364 33.5533 45.0882 35.0314 48.1137 34.8836C49.2206 34.9575 50.2537 34.6619 51.2868 34.2184C48.2613 31.7795 45.7523 30.7448 42.8744 30.7448Z" fill="#151515"/>
<path d="M65.0117 39.0962V12.8594H86.0429V17.5155H69.9559V23.7236H85.7478V28.3797H69.9559V34.514H86.1167V39.1701L65.0117 39.0962Z" fill="#151515"/>
<path d="M105.821 37.692C103.681 38.8005 101.319 39.1701 97.3344 39.1701H88.9219V12.8594H97.2606C101.393 12.8594 104.492 13.5245 106.559 14.707C110.248 16.8503 112.241 21.063 112.241 26.0147C112.241 31.336 109.806 35.6965 105.821 37.692ZM103.312 18.6241C101.762 17.8111 100.139 17.5155 97.0392 17.5155H93.7923V34.514H97.1868C99.4006 34.6618 101.541 34.2923 103.607 33.3315C107.592 30.523 108.551 24.98 105.747 20.9891C105.083 20.0283 104.271 19.2153 103.312 18.6241Z" fill="#151515"/>
<path d="M131.13 35.1791V39.0962H126.408V35.1791H115.117V31.336L127.146 12.8594H131.13V30.9665H133.861V35.1791H131.13ZM126.481 20.8413L119.988 30.9665H126.481V20.8413Z" fill="#151515"/>
<path d="M148.324 29.8571L142.937 34.7349H153.269V39.1693H136.296V35.0306L145.594 26.1618C147.734 24.1663 148.62 22.6143 148.62 20.9144C148.767 18.7711 147.144 16.9235 145.004 16.7757C144.93 16.7757 144.93 16.7757 144.856 16.7757C142.421 16.7757 140.797 18.845 140.797 21.9491H136.148C136.148 15.8888 139.838 12.4152 144.856 12.4152C149.505 12.3413 153.269 15.9627 153.416 20.6188C153.416 20.6927 153.416 20.8405 153.416 20.9144C153.416 24.1663 152.309 26.2357 148.324 29.8571Z" fill="#151515"/>
<defs>
<radialGradient id="paint0_radial_1223_23173" cx="0" cy="0" r="1" gradientUnits="userSpaceOnUse" gradientTransform="translate(19.809 13.5569) scale(23.7044 23.7406)">
<stop stop-color="#ED1C24"/>
<stop offset="1" stop-color="#8C003F"/>
</radialGradient>
<linearGradient id="paint1_linear_1223_23173" x1="6.37562" y1="38.7656" x2="23.9314" y2="38.7656" gradientUnits="userSpaceOnUse">
<stop stop-color="#6D6E71"/>
<stop offset="0.09" stop-color="#727376"/>
<stop offset="0.2" stop-color="#818285"/>
<stop offset="0.31" stop-color="#9A9B9D"/>
<stop offset="0.44" stop-color="#BCBEBF"/>
<stop offset="0.51" stop-color="#D1D3D4"/>
<stop offset="0.54" stop-color="#C0C2C4"/>
<stop offset="0.62" stop-color="#A2A4A6"/>
<stop offset="0.7" stop-color="#8B8C8F"/>
<stop offset="0.79" stop-color="#7A7B7E"/>
<stop offset="0.88" stop-color="#707174"/>
<stop offset="1" stop-color="#6D6E71"/>
</linearGradient>
</defs>
</svg>
